<svg width="23" height="23" viewBox="0 0 23 23" fill="none" xmlns="http://www.w3.org/2000/svg">
<g clip-path="url(#clip0_722_2276)">
<path d="M22.3532 11.4809C22.3532 17.5537 17.4303 22.4766 11.3574 22.4766C5.28465 22.4766 0.361694 17.5537 0.361694 11.4809C0.361694 5.40807 5.28465 0.485107 11.3574 0.485107C17.4303 0.485107 22.3532 5.40807 22.3532 11.4809Z" fill="#1B1B1B"/>
<path d="M9.22267 7.88755L11.3473 6.68982L13.472 7.88755L14.7105 7.19052L11.3373 5.29572L7.96401 7.19052L9.22267 7.88755ZM14.7206 9.58598L13.4821 8.88892L11.3574 10.0867L9.23278 8.88892L7.99424 9.58598V10.9801L10.1188 12.1779V14.5734L11.3574 15.2704L12.596 14.5734V12.1779L14.7206 10.9801V9.58598ZM14.7206 11.9815V13.3756L13.482 14.0727V12.6785L14.7206 11.9815ZM15.6067 13.8763L13.482 15.0741V16.4681L16.8553 14.5734V10.7838L15.6168 11.4808V13.8763H15.6067ZM15.6067 9.08533L14.3682 8.38827L15.6067 7.69121L16.8453 8.38827V9.78239L15.6067 10.4795V9.08533ZM10.1088 15.5747V16.9689L11.3473 17.6659L12.5859 16.9689V15.5747L11.3473 16.2718L10.1088 15.5747ZM9.22267 14.0727L7.98414 13.3756V11.9815L9.22267 12.6785V14.0727ZM10.1088 8.38827L11.3473 9.08533L12.5859 8.38827L11.3473 7.69121L10.1088 8.38827ZM8.33662 8.38827L7.09808 9.08533V10.4795L5.85956 9.78239V8.38827L7.09808 7.69121L8.33662 8.38827ZM7.09808 11.4808L5.85956 10.7838V14.5734L9.23285 16.4681V15.0741L7.10816 13.8763V11.4808H7.09808Z" fill="#F0B90B"/>
</g>
<defs>
<clipPath id="clip0_722_2276">
<rect width="21.9915" height="21.9915" fill="white" transform="translate(0.361694 0.485107)"/>
</clipPath>
</defs>
</svg>
